<svg width="17" height="17" viewBox="0 0 17 17" fill="none" xmlns="http://www.w3.org/2000/svg">
<path fill-rule="evenodd" clip-rule="evenodd" d="M4.21741 9.83065L0.300256 8.15147C-0.0975851 7.9802 -0.101038 7.3351 0.295674 7.15937L16.3718 0.0364807C16.7126 -0.114918 17.0643 0.228036 16.99 0.639099L14.1051 16.5778C14.0371 16.9541 13.6529 17.1247 13.3818 16.8984L9.44354 13.6144C9.20434 13.4149 8.87832 13.4256 8.64945 13.6398L6.46597 15.6843C6.2125 15.9223 5.83063 15.7897 5.73361 15.431L4.21741 9.83065ZM13.1448 3.5213L5.48923 8.93678C5.19581 9.14481 5.05765 9.55176 5.15245 9.93281L5.98017 13.2733C6.03894 13.51 6.3381 13.4857 6.36659 13.2411L6.58182 11.4093C6.62239 11.0644 6.76566 10.7466 6.98773 10.5092L13.3058 3.7638C13.4239 3.63792 13.2824 3.42424 13.1448 3.5213Z" fill="white"/>
<path d="M5.4892 8.93612L13.1448 3.52064C13.2824 3.42358 13.4239 3.63725 13.3058 3.76314L6.9877 10.5085C6.76564 10.746 6.62237 11.0637 6.58179 11.4086L6.36657 13.2405C6.33808 13.4851 6.03892 13.5093 5.98015 13.2726L5.15242 9.93214C5.05763 9.55109 5.19579 9.14415 5.4892 8.93612Z" fill="#E6E6E6"/>
</svg>
